<svg id="Layer_1" data-name="Layer 1" xmlns="http://www.w3.org/2000/svg" viewBox="0 0 166.21 346.71"><defs><style>.cls-1{fill:#f9f9f9;}</style></defs><title>logicwaves_logo_white</title><path class="cls-1" d="M336,438.35c-6.81.92-13.66,2.25-20.56,2.72-18.23,1.23-24.68-6.49-21.14-24.41q13.32-67.37,26.44-134.77c2-10.06,1.9-10.07,12.28-10.07h45.56l9.27-48.33a21.61,21.61,0,0,0-2.7-.37q-75.22,0-150.44-.09c-3.11,0-4,1.43-4.51,4q-2.57,13.92-5.2,27.82c-1,5.47-2.15,10.93-3.35,17h40.3a18.2,18.2,0,0,1,0,2.93c-5.44,27.95-11,55.87-16.35,83.84-4.81,25.2-10.33,50.32-13.76,75.72-3.4,25.17,6,44.68,31.06,51.94,23.62,6.83,47,4.59,69.91-3.55,1.38-.49,2.67-3.23,2.76-5,.39-8.15.36-16.32.44-24.48C336,448.33,336,443.39,336,438.35ZM336,204.48l11.37-60.87c-20.17,6.85-38.93,13.4-57.83,19.54-4.84,1.57-7.35,3.91-7.73,9.14-.29,4.08-1.73,8.07-2.49,12.12-1.23,6.57-2.32,13.16-3.52,20.06Z" transform="translate(-221.64 -143.62)"/><path class="cls-1" d="M336,438.35c0,5,0,10,0,14.91-.08,8.16,0,16.33-.44,24.48-.08,1.76-1.38,4.5-2.76,5-22.92,8.15-46.29,10.38-69.91,3.55-25.08-7.26-34.46-26.77-31.06-51.94,3.43-25.4,9-50.52,13.76-75.72,5.34-28,10.91-55.9,16.35-83.84a18.2,18.2,0,0,0,0-2.93h-40.3c1.21-6.12,2.31-11.58,3.35-17q2.64-13.9,5.2-27.82c.47-2.54,1.4-4,4.51-4q75.22.16,150.44.09a21.61,21.61,0,0,1,2.7.37l-9.27,48.33H333c-10.39,0-10.32,0-12.28,10.07q-13.17,67.4-26.44,134.77c-3.54,17.92,2.9,25.65,21.14,24.41C322.33,440.6,329.18,439.28,336,438.35Z" transform="translate(-221.64 -143.62)"/><path class="cls-1" d="M336,204.48H275.85c1.2-6.9,2.3-13.49,3.52-20.06.76-4.06,2.2-8,2.49-12.12.37-5.23,2.89-7.57,7.73-9.14,18.9-6.14,37.66-12.69,57.83-19.54Z" transform="translate(-221.64 -143.62)"/></svg>